HIERARCHY
ROOT Hips
{
    OFFSET   0.000000   0.000000   0.000000
    CHANNELS 6 Xposition Yposition Zposition Zrotation Xrotation Yrotation
    JOINT Chest
    {
        OFFSET   0.000000   8.007230   0.000000
        CHANNELS 3 Zrotation Xrotation Yrotation
        JOINT Chest2
        {
            OFFSET   0.000000  22.077100   0.000000
            CHANNELS 3 Zrotation Xrotation Yrotation
            JOINT Neck
            {
                OFFSET   0.000000  23.254800  -0.000021
                CHANNELS 3 Zrotation Xrotation Yrotation
                JOINT Head
                {
                    OFFSET   0.000000  14.370000   1.956610
                    CHANNELS 3 Zrotation Xrotation Yrotation
                    End Site
                    {
                        OFFSET   0.000000  19.566000   0.000000
                    }
                }
            }
            JOINT LeftCollar
            {
                OFFSET   3.911900  19.017000  -0.467063
                CHANNELS 3 Zrotation Xrotation Yrotation
                JOINT LeftShoulder
                {
                    OFFSET  10.383700   0.000000   0.000000
                    CHANNELS 3 Zrotation Xrotation Yrotation
                    JOINT LeftElbow
                    {
                        OFFSET  26.662100   0.001529   0.000325
                        CHANNELS 3 Zrotation Xrotation Yrotation
                        JOINT LeftWrist
                        {
                            OFFSET  28.869000  -0.000011  -0.000096
                            CHANNELS 3 Zrotation Xrotation Yrotation
                            JOINT LeftFinger0
                            {
                                OFFSET   2.044650  -2.323460   3.252850
                                CHANNELS 3 Zrotation Xrotation Yrotation
                                JOINT LeftFinger01
                                {
                                    OFFSET   3.088130   0.000000   0.000000
                                    CHANNELS 3 Zrotation Xrotation Yrotation
                                    JOINT LeftFinger02
                                    {
                                        OFFSET   2.639460   0.000000   0.000000
                                        CHANNELS 3 Zrotation Xrotation Yrotation
                                        End Site
                                        {
                                            OFFSET   2.582190   0.000000   0.000000
                                        }
                                    }
                                }
                            }
                            JOINT LeftFinger1
                            {
                                OFFSET   8.364480   0.000000   3.252850
                                CHANNELS 3 Zrotation Xrotation Yrotation
                                JOINT LeftFinger11
                                {
                                    OFFSET   4.646930   0.000000   0.000000
                                    CHANNELS 3 Zrotation Xrotation Yrotation
                                    JOINT LeftFinger12
                                    {
                                        OFFSET   2.323460   0.000000   0.000000
                                        CHANNELS 3 Zrotation Xrotation Yrotation
                                        End Site
                                        {
                                            OFFSET   2.273050   0.000000   0.000000
                                        }
                                    }
                                }
                            }
                            JOINT LeftFinger2
                            {
                                OFFSET   8.364480   0.000016   1.078090
                                CHANNELS 3 Zrotation Xrotation Yrotation
                                JOINT LeftFinger21
                                {
                                    OFFSET   5.111620   0.000000   0.000000
                                    CHANNELS 3 Zrotation Xrotation Yrotation
                                    JOINT LeftFinger22
                                    {
                                        OFFSET   2.788160   0.000017   0.000000
                                        CHANNELS 3 Zrotation Xrotation Yrotation
                                        End Site
                                        {
                                            OFFSET   2.727660   0.000000   0.000000
                                        }
                                    }
                                }
                            }
                            JOINT LeftFinger3
                            {
                                OFFSET   7.899780   0.000015  -1.078090
                                CHANNELS 3 Zrotation Xrotation Yrotation
                                JOINT LeftFinger31
                                {
                                    OFFSET   4.646920   0.000000   0.000000
                                    CHANNELS 3 Zrotation Xrotation Yrotation
                                    JOINT LeftFinger32
                                    {
                                        OFFSET   2.323470   0.000000   0.000000
                                        CHANNELS 3 Zrotation Xrotation Yrotation
                                        End Site
                                        {
                                            OFFSET   2.273050   0.000000   0.000000
                                        }
                                    }
                                }
                            }
                            JOINT LeftFinger4
                            {
                                OFFSET   7.435090   0.000000  -3.252850
                                CHANNELS 3 Zrotation Xrotation Yrotation
                                JOINT LeftFinger41
                                {
                                    OFFSET   3.717550   0.000000   0.000000
                                    CHANNELS 3 Zrotation Xrotation Yrotation
                                    JOINT LeftFinger42
                                    {
                                        OFFSET   1.858760   0.000000   0.000000
                                        CHANNELS 3 Zrotation Xrotation Yrotation
                                        End Site
                                        {
                                            OFFSET   1.818440   0.000000   0.000000
                                        }
                                    }
                                }
                            }
                        }
                    }
                }
            }
            JOINT RightCollar
            {
                OFFSET  -3.911900  19.017000  -0.467062
                CHANNELS 3 Zrotation Xrotation Yrotation
                JOINT RightShoulder
                {
                    OFFSET -10.383700   0.000015   0.000000
                    CHANNELS 3 Zrotation Xrotation Yrotation
                    JOINT RightElbow
                    {
                        OFFSET -26.662100   0.001341   0.000385
                        CHANNELS 3 Zrotation Xrotation Yrotation
                        JOINT RightWrist
                        {
                            OFFSET -28.869000   0.000025  -0.000080
                            CHANNELS 3 Zrotation Xrotation Yrotation
                            JOINT RightFinger0
                            {
                                OFFSET  -2.044650  -2.323490   3.252850
                                CHANNELS 3 Zrotation Xrotation Yrotation
                                JOINT RightFinger01
                                {
                                    OFFSET  -3.088130   0.000000   0.000000
                                    CHANNELS 3 Zrotation Xrotation Yrotation
                                    JOINT RightFinger02
                                    {
                                        OFFSET  -2.639460   0.000000   0.000000
                                        CHANNELS 3 Zrotation Xrotation Yrotation
                                        End Site
                                        {
                                            OFFSET  -2.582190   0.000000   0.000000
                                        }
                                    }
                                }
                            }
                            JOINT RightFinger1
                            {
                                OFFSET  -8.364480   0.000000   3.252850
                                CHANNELS 3 Zrotation Xrotation Yrotation
                                JOINT RightFinger11
                                {
                                    OFFSET  -4.646930   0.000000   0.000000
                                    CHANNELS 3 Zrotation Xrotation Yrotation
                                    JOINT RightFinger12
                                    {
                                        OFFSET  -2.323470   0.000000   0.000000
                                        CHANNELS 3 Zrotation Xrotation Yrotation
                                        End Site
                                        {
                                            OFFSET  -2.273050   0.000000   0.000000
                                        }
                                    }
                                }
                            }
                            JOINT RightFinger2
                            {
                                OFFSET  -8.364480   0.000000   1.078090
                                CHANNELS 3 Zrotation Xrotation Yrotation
                                JOINT RightFinger21
                                {
                                    OFFSET  -5.111610   0.000000   0.000000
                                    CHANNELS 3 Zrotation Xrotation Yrotation
                                    JOINT RightFinger22
                                    {
                                        OFFSET  -2.788160   0.000000   0.000000
                                        CHANNELS 3 Zrotation Xrotation Yrotation
                                        End Site
                                        {
                                            OFFSET  -2.727660   0.000000   0.000000
                                        }
                                    }
                                }
                            }
                            JOINT RightFinger3
                            {
                                OFFSET  -7.899780   0.000000  -1.078090
                                CHANNELS 3 Zrotation Xrotation Yrotation
                                JOINT RightFinger31
                                {
                                    OFFSET  -4.646920   0.000000   0.000000
                                    CHANNELS 3 Zrotation Xrotation Yrotation
                                    JOINT RightFinger32
                                    {
                                        OFFSET  -2.323470   0.000000   0.000000
                                        CHANNELS 3 Zrotation Xrotation Yrotation
                                        End Site
                                        {
                                            OFFSET  -2.273050   0.000000   0.000000
                                        }
                                    }
                                }
                            }
                            JOINT RightFinger4
                            {
                                OFFSET  -7.435090   0.000000  -3.252850
                                CHANNELS 3 Zrotation Xrotation Yrotation
                                JOINT RightFinger41
                                {
                                    OFFSET  -3.717550   0.000000   0.000000
                                    CHANNELS 3 Zrotation Xrotation Yrotation
                                    JOINT RightFinger42
                                    {
                                        OFFSET  -1.858770   0.000000   0.000000
                                        CHANNELS 3 Zrotation Xrotation Yrotation
                                        End Site
                                        {
                                            OFFSET  -1.818440   0.000000   0.000000
                                        }
                                    }
                                }
                            }
                        }
                    }
                }
            }
        }
    }
    JOINT LeftHip
    {
        OFFSET   9.783010   0.000000   0.000000
        CHANNELS 3 Zrotation Xrotation Yrotation
        JOINT LeftKnee
        {
            OFFSET   0.000070 -41.789100   0.000028
            CHANNELS 3 Zrotation Xrotation Yrotation
            JOINT LeftAnkle
            {
                OFFSET   0.000087 -41.133200  -0.000100
                CHANNELS 3 Zrotation Xrotation Yrotation
                JOINT LeftToe
                {
                    OFFSET   0.000000  -6.358960  14.674500
                    CHANNELS 3 Zrotation Xrotation Yrotation
                    End Site
                    {
                        OFFSET   0.000000   0.000000   3.913200
                    }
                }
            }
        }
    }
    JOINT RightHip
    {
        OFFSET  -9.783020   0.000000   0.000000
        CHANNELS 3 Zrotation Xrotation Yrotation
        JOINT RightKnee
        {
            OFFSET   0.000044 -41.789100  -0.000870
            CHANNELS 3 Zrotation Xrotation Yrotation
            JOINT RightAnkle
            {
                OFFSET  -0.000090 -41.133200  -0.000245
                CHANNELS 3 Zrotation Xrotation Yrotation
                JOINT RightToe
                {
                    OFFSET   0.000000  -6.358960  14.674500
                    CHANNELS 3 Zrotation Xrotation Yrotation
                    End Site
                    {
                        OFFSET   0.000000   0.000000   3.913200
                    }
                }
            }
        }
    }
}
MOTION
Frames: 5
Frame Time:   0.016667
 -0.913417  89.438000  -0.053086  -0.581255  -5.233940   3.604300   0.285819   4.078340  -0.217495   0.589451   8.155510  -0.457198  -1.425990   0.048047  -0.000925  -2.342410   0.101220   5.730130  -5.894910   3.163490   6.103190 -78.861400   1.091930  -3.343720   0.053571  -3.735460 -15.492000   8.980670  -8.099950   1.281520  41.011100  36.790400 -53.186000 -34.128700  -0.002297   0.006285 -12.064300   0.013958   0.002834 -35.533800  -0.627647   0.878541 -29.077000  -0.007882   0.000639 -20.353900  -0.005630   0.001573 -30.412700  -3.732910   6.329640 -45.929000   0.001887   0.005417 -30.588700  -0.001381  -0.010784 -28.224500  -4.945190   9.124060 -37.676600   0.002812   0.001716 -25.092600   0.002001   0.000157 -33.522600  -5.769170   8.622800 -50.936300   0.002693  -0.002352 -33.923600   0.001526   0.000941   9.799370   2.472710   5.943310  72.394600 -12.317900   4.034400   2.466020 -11.738300  14.291600 -17.547900   1.787020   3.547120 -44.415200  43.087800  82.908600  29.797100   0.000249  -0.009211   9.898540  -0.007157   0.000455  34.134500   2.897220   4.264140  28.018700   0.000680   0.006891  19.606300   0.000723   0.005902  28.786500  -0.210614  -0.383051  41.984200   0.001024  -0.010234  27.961500   0.000685  -0.010143  28.965800  -1.421530  -2.566110  43.496600   0.000000  -0.010493  28.968700   0.000079   0.000224  36.660200  -1.752360  -2.352680  55.044400  -0.000422   0.000587  36.659600   0.003497  -0.009868   5.144960   7.184060  -1.073160   0.071440   0.965664  13.375000  -4.157110  -2.665930  -1.032960  -0.000000   0.000000   0.000000  -0.338852   7.516470  -6.867270   1.539850   1.143610 -13.006300  -1.333850  -3.384880  -3.090810   0.000000   0.000000   0.000000
 -0.912116  89.437900  -0.052887  -0.580202  -5.251130   3.603370   0.285589   4.097610  -0.213199   0.588621   8.194060  -0.448642  -1.417010   0.047457  -0.000870  -2.327740   0.099554   5.710550  -5.893530   3.145340   6.103080 -78.874400   1.149560  -3.340650   0.060019  -3.741700 -15.611900   8.962720  -8.118110   1.319660  40.705600  36.356700 -52.781000 -34.168500  -0.002300   0.006285 -12.084200   0.014100   0.002841 -35.489100  -0.629497   0.881704 -29.041600  -0.007890   0.000688 -20.329100  -0.005685   0.001575 -30.367100  -3.732690   6.343350 -45.860700   0.002027   0.005466 -30.543200  -0.001253  -0.010883 -28.220800  -4.937690   9.111190 -37.607700   0.003010   0.001603 -25.046800   0.002145   0.000196 -33.436800  -5.749080   8.622740 -50.806600   0.002903  -0.002352 -33.837200   0.001640   0.001027   9.802370   2.442250   5.947090  72.409400 -12.334400   3.967420   2.446380 -11.671900  14.536300 -17.464700   1.759400   3.535640 -44.315300  42.994900  82.769900  29.822000   0.000250  -0.009293   9.911010  -0.007157   0.000435  34.128700   2.888350   4.252850  28.013800   0.000676   0.006874  19.606300   0.000665   0.005890  28.786500  -0.217750  -0.395916  41.920100   0.000930  -0.010272  27.918800   0.000634  -0.010191  28.940100  -1.428150  -2.580750  43.458900  -0.000094  -0.010532  28.943600   0.000053   0.000255  36.629500  -1.760660  -2.366450  54.999100  -0.000469   0.000620  36.629400   0.003444  -0.009895   5.145320   7.195450  -1.075650   0.068768   0.979094  13.362000  -4.156570  -2.675220  -1.017810   0.000000   0.000000   0.000000  -0.337303   7.614530  -6.867100   1.551240   1.068380 -13.004900  -1.333770  -3.386770  -3.090930  -0.000000   0.000000   0.000000
 -0.908634  89.437700  -0.052687  -0.578633  -5.280310   3.599890   0.285224   4.133530  -0.205870   0.587686   8.265930  -0.434129  -1.402450   0.043328  -0.000793  -2.304040   0.087877   5.672870  -5.894180   3.114640   6.102900 -78.908000   1.230620  -3.318830   0.049318  -3.763220 -15.912600   8.906710  -8.245660   1.445690  40.203000  35.599700 -52.136300 -34.228400  -0.002308   0.006292 -12.114200   0.014399   0.002849 -35.444000  -0.642443   0.903840 -29.006200  -0.007904   0.000792 -20.304400  -0.005796   0.001578 -30.318600  -3.732430   6.357170 -45.788300   0.002222   0.005570 -30.495000  -0.001041  -0.011089 -28.217100  -4.930190   9.098330 -37.538900   0.003286   0.001415 -25.000900   0.002347   0.000260 -33.350800  -5.728970   8.624150 -50.676900   0.003196  -0.002354 -33.750800   0.001800   0.001147   9.808940   2.376180   5.954210  72.436200 -12.354400   3.824400   2.410360 -11.509600  15.024700 -17.300600   1.592620   3.459410 -44.071700  42.790100  82.453500  29.908300   0.000251  -0.009479   9.954160  -0.007157   0.000399  34.128000   2.846110   4.190330  28.008900   0.000669   0.006829  19.606300   0.000532   0.005864  28.786300  -0.245063  -0.445473  41.800900   0.000771  -0.010352  27.839400   0.000549  -0.010304  28.896100  -1.447470  -2.620300  43.394300  -0.000247  -0.010616  28.900600   0.000000   0.000309  36.574200  -1.784600  -2.403390  54.918000  -0.000545   0.000674  36.575400   0.003326  -0.009949   5.146260   7.215030  -1.081510   0.064304   1.000680  13.341600  -4.155550  -2.690070  -0.990338  -0.000000   0.000000   0.000000  -0.334435   7.756950  -6.867680   1.567420   0.963774 -13.001100  -1.333060  -3.389070  -3.091130   0.000000   0.000000  -0.000000
 -0.902930  89.437600  -0.053817  -0.577747  -5.304230   3.593460   0.286693   4.168820  -0.198030   0.590473   8.336580  -0.418831  -1.392230   0.031709  -0.000757  -2.287320   0.062798   5.628080  -5.903120   3.096460   6.105430 -78.956100   1.266670  -3.265190  -0.001803  -3.796610 -16.328400   8.806240  -8.897420   1.661470  39.680400  34.767500 -51.530600 -34.269000  -0.002330   0.006317 -12.134500   0.014804   0.002847 -35.675800  -0.719284   1.002030 -29.196700  -0.007920   0.000928 -20.437700  -0.005944   0.001582 -30.316700  -3.732350   6.357240 -45.785600   0.002306   0.005709 -30.493200  -0.000831  -0.011366 -28.225700  -4.948990   9.129180 -37.729400   0.003402   0.001231 -25.127800   0.002433   0.000321 -33.416100  -5.757160   8.644730 -50.779700   0.003325  -0.002362 -33.819300   0.001869   0.001196   9.810270   2.295340   5.957700  72.460500 -12.359500   3.657170   2.364390 -11.270800  15.551100 -17.117600   1.268710   3.296480 -43.716700  42.526400  82.038800  30.074600   0.000251  -0.009747  10.037300  -0.007157   0.000364  34.164200   2.757800   4.054330  28.032800   0.000660   0.006758  19.623000   0.000339   0.005829  28.785400  -0.299640  -0.544779  41.667700   0.000611  -0.010462  27.750700   0.000466  -0.010471  28.856000  -1.479800  -2.683010  43.324700  -0.000384  -0.010731  28.854300  -0.000078   0.000374  36.513800  -1.824160  -2.461840  54.832200  -0.000622   0.000727  36.518200   0.003163  -0.010021   5.148060   7.231370  -1.092510   0.060302   1.016620  13.330400  -4.150770  -2.700760  -0.964212  -0.000000   0.000000  -0.000000  -0.330935   7.836340  -6.868990   1.575200   0.921437 -12.995800  -1.331170  -3.389490  -3.091360   0.000000   0.000000   0.000000
 -0.895965  89.437600  -0.057354  -0.577137  -5.329880   3.583930   0.289792   4.211530  -0.193228   0.596294   8.422000  -0.409540  -1.381290   0.004893  -0.000744  -2.269240   0.009799   5.585400  -5.914030   3.063050   6.123620 -79.026700   1.279420  -3.140220  -0.117307  -3.856610 -16.938800   8.718160  -9.950230   1.991620  39.388800  34.230500 -51.218600 -34.289400  -0.002345   0.006337 -12.144700   0.015207   0.002844 -36.031600  -0.829252   1.136930 -29.489000  -0.007930   0.001064 -20.642300  -0.006077   0.001586 -30.314700  -3.732320   6.357310 -45.782900   0.002333   0.005848 -30.491400  -0.000705  -0.011641 -28.236500  -4.979880   9.181010 -37.959900   0.003439   0.001121 -25.281300   0.002461   0.000357 -33.528900  -5.809710   8.684300 -50.957200   0.003370  -0.002372 -33.937500   0.001893   0.001211   9.782280   2.187780   5.970110  72.492300 -12.362900   3.426450   2.328110 -10.973700  16.240100 -16.908300   0.673184   3.029760 -43.274400  42.186100  81.500400  30.288000   0.000251  -0.010041  10.144000  -0.007156   0.000319  34.263900   2.630070   3.854450  28.108500   0.000651   0.006673  19.676000   0.000126   0.005786  28.784000  -0.372028  -0.676599  41.543600   0.000514  -0.010572  27.668100   0.000417  -0.010669  28.819200  -1.523050  -2.765300  43.282000  -0.000464  -0.010848  28.825800  -0.000130   0.000414  36.462800  -1.877380  -2.538130  54.757700  -0.000668   0.000759  36.468600   0.002981  -0.010082   5.150120   7.249530  -1.100170   0.054162   1.030920  13.315600  -4.142750  -2.710480  -0.934358  -0.000000   0.000000  -0.000000  -0.328753   7.871370  -6.869590   1.578110   0.908509 -12.986800  -1.328900  -3.389620  -3.091510  -0.000000   0.000000  -0.000000
